<svg width="24" height="24" viewBox="0 0 24 24" fill="none" xmlns="http://www.w3.org/2000/svg">
<path d="M19.0004 0H5.00041C2.23941 0 0.000411987 2.239 0.000411987 5V19C0.000411987 21.761 2.23941 24 5.00041 24H19.0004C21.7624 24 24.0004 21.761 24.0004 19V5C24.0004 2.239 21.7624 0 19.0004 0ZM8.00041 19H5.00041V8H8.00041V19ZM6.50041 6.732C5.53441 6.732 4.75041 5.942 4.75041 4.968C4.75041 3.994 5.53441 3.204 6.50041 3.204C7.46641 3.204 8.25041 3.994 8.25041 4.968C8.25041 5.942 7.46741 6.732 6.50041 6.732ZM20.0004 19H17.0004V13.396C17.0004 10.028 13.0004 10.283 13.0004 13.396V19H10.0004V8H13.0004V9.765C14.3964 7.179 20.0004 6.988 20.0004 12.241V19Z" fill="#EA4476"/>
</svg>
