<svg width="20" height="20" viewBox="0 0 20 20" fill="none" xmlns="http://www.w3.org/2000/svg">
<g clip-path="url(#clip0_666_1249)">
<path d="M10 20C15.5228 20 20 15.5228 20 10C20 4.47715 15.5228 0 10 0C4.47715 0 0 4.47715 0 10C0 15.5228 4.47715 20 10 20Z" fill="#4D4D4D"/>
<path fill-rule="evenodd" clip-rule="evenodd" d="M10.5818 6.01562C12.1149 6.12875 12.8586 7.04375 12.8586 7.20937C12.8586 7.32625 12.8305 7.58125 12.8305 7.7375C12.8305 7.84188 12.868 8.00875 12.943 8.2375C12.9243 8.39375 12.8211 8.4725 12.633 8.4725C12.3518 8.4725 12.4305 8.15687 12.013 7.53187C11.563 6.85875 11.108 6.7175 10.5793 6.68813C10.5899 8.12313 10.6293 12.0731 10.6324 13.4319C12.0418 13.2269 12.8243 12.1744 13.0274 12.1744C13.1399 12.1744 13.2811 12.2619 13.2811 12.4681C13.2811 12.9025 12.1674 13.885 10.6111 14.0794C10.4949 15.3475 9.89489 16.875 8.40614 16.875C7.70177 16.875 7.10989 16.3313 7.10989 15.7C7.10989 15.2888 7.41989 15.1125 7.70177 15.1125C7.98302 15.1125 8.26489 15.3181 8.26489 15.7C8.26489 15.9544 8.18052 16.1312 8.01177 16.2288C8.18052 16.3462 8.34927 16.405 8.51864 16.405C9.08239 16.405 9.50614 15.385 9.57864 14.0737C7.93614 13.81 6.40552 12.245 6.40552 9.97062C6.40552 7.4125 7.99927 6.30625 9.56239 6.05937C9.59364 4.90937 10.1943 3.15313 11.7311 3.125C12.6605 3.125 13.0549 3.88875 13.0549 4.3C13.0549 4.71125 12.7593 4.8875 12.4636 4.8875C12.1674 4.8875 11.8718 4.6525 11.8718 4.3C11.8718 4.065 11.9655 3.89875 12.153 3.80062C12.0218 3.68312 11.853 3.62437 11.6468 3.62437C10.8649 3.62437 10.6193 5.27312 10.5811 6.01562H10.5818ZM9.58989 13.3831C9.58739 11.8619 9.56802 8.35625 9.56302 6.74563C8.12052 7.1 7.64614 8.81625 7.64614 9.97062C7.64614 11.8006 8.51114 13.0575 9.58989 13.3831Z" fill="white"/>
</g>
<defs>
<clipPath id="clip0_666_1249">
<rect width="20" height="20" fill="white"/>
</clipPath>
</defs>
</svg>
