<svg width="24" height="24" viewBox="0 0 24 24" fill="none" xmlns="http://www.w3.org/2000/svg">
<g clip-path="url(#clip0_336_712)">
<path d="M24.0004 7.28581C23.1185 7.67644 22.1699 7.93709 21.1693 8.06041C22.1866 7.45646 22.9692 6.49321 23.3365 5.3553C22.3845 5.91326 21.33 6.32322 20.2081 6.53921C19.3121 5.58928 18.0342 5 16.6184 5C13.8986 5 11.6941 7.18515 11.6941 9.87959C11.6941 10.2609 11.7388 10.6322 11.8228 10.9928C7.7311 10.7875 4.10207 8.84235 1.67427 5.89059C1.24764 6.61187 1.00766 7.45646 1.00766 8.34772C1.00766 10.0416 1.87492 11.5328 3.19748 12.4114C2.39021 12.3867 1.63028 12.1621 0.964998 11.8021C0.964998 11.8168 0.964998 11.8388 0.964998 11.8594C0.964998 14.2266 2.66286 16.1977 4.91334 16.6464C4.50204 16.759 4.06741 16.8217 3.61944 16.8217C3.30147 16.8217 2.9915 16.7857 2.69152 16.7317C3.31814 18.6662 5.13598 20.0801 7.2898 20.1221C5.60461 21.4286 3.48212 22.2112 1.17431 22.2112C0.775681 22.2112 0.385713 22.1886 0.000411987 22.1419C2.1809 23.5225 4.77001 24.3317 7.54912 24.3317C16.605 24.3317 21.5593 16.895 21.5593 10.4435C21.5593 10.2322 21.5526 10.0216 21.5426 9.8136C22.5092 9.13099 23.3425 8.26973 24.0004 7.28581Z" fill="#EA4476"/>
</g>
<defs>
<clipPath id="clip0_336_712">
<rect width="24" height="24" fill="white" transform="translate(0.000411987)"/>
</clipPath>
</defs>
</svg>
